<svg xmlns="http://www.w3.org/2000/svg" xmlns:xlink="http://www.w3.org/1999/xlink" width="500" zoomAndPan="magnify" viewBox="0 0 375 374.999991" height="500" preserveAspectRatio="xMidYMid meet" version="1.0"><defs><clipPath id="fcba2a3f4c"><path d="M 37 37 L 337.5 37 L 337.5 337.5 L 37 337.5 Z M 37 37 " clip-rule="nonzero"/></clipPath><clipPath id="2dcdb8d0d3"><path d="M 67.5 37.5 L 307.5 37.5 C 324.070312 37.5 337.5 50.929688 337.5 67.5 L 337.5 307.5 C 337.5 324.070312 324.070312 337.5 307.5 337.5 L 67.5 337.5 C 50.929688 337.5 37.5 324.070312 37.5 307.5 L 37.5 67.5 C 37.5 50.929688 50.929688 37.5 67.5 37.5 Z M 67.5 37.5 " clip-rule="nonzero"/></clipPath><clipPath id="638e287115"><path d="M 62 94.566406 L 313 94.566406 L 313 280.566406 L 62 280.566406 Z M 62 94.566406 " clip-rule="nonzero"/></clipPath></defs><g clip-path="url(#fcba2a3f4c)"><g clip-path="url(#2dcdb8d0d3)"><path fill="#ffffff" d="M 37.5 37.5 L 337.5 37.5 L 337.5 337.5 L 37.5 337.5 Z M 37.5 37.5 " fill-opacity="1" fill-rule="nonzero"/></g></g><g clip-path="url(#638e287115)"><path fill="#000000" d="M 155.285156 94.566406 L 106.96875 94.566406 C 104.160156 94.570312 101.804688 96.386719 101.144531 99.0625 L 94.09375 127.613281 L 87.820312 153.003906 L 62.492188 255.585938 C 62.007812 257.554688 62.511719 259.703125 63.851562 261.371094 C 65.191406 263.039062 67.207031 264.023438 69.269531 264.023438 L 91.800781 264.023438 L 89.796875 272.128906 C 89.3125 274.097656 89.816406 276.246094 91.15625 277.914062 C 92.496094 279.582031 94.511719 280.566406 96.574219 280.566406 L 277.1875 280.566406 C 280 280.566406 282.359375 278.75 283.023438 276.070312 L 312.714844 155.835938 C 313.203125 153.871094 312.699219 151.71875 311.359375 150.050781 C 310.019531 148.382812 308.003906 147.394531 305.9375 147.394531 L 283.453125 147.394531 L 287.320312 131.539062 C 287.800781 129.574219 287.289062 127.429688 285.949219 125.765625 C 284.613281 124.101562 282.601562 123.117188 280.539062 123.117188 L 203.453125 123.117188 C 202.316406 119.800781 200.53125 115.648438 197.214844 111.503906 C 190.21875 102.761719 176.878906 94.566406 155.285156 94.566406 Z M 112.636719 107.496094 L 156.230469 107.496094 C 174.753906 107.496094 182.875 113.574219 187.308594 119.113281 C 191.738281 124.648438 192.21875 129.746094 192.21875 129.746094 C 192.5625 133.257812 195.636719 136.054688 199.148438 136.054688 L 272.652344 136.054688 L 269.882812 147.394531 C 261.464844 147.394531 251.929688 147.394531 242.382812 147.394531 L 196.761719 147.394531 C 194.019531 147.394531 191.699219 149.128906 190.976562 151.714844 C 189.113281 158.402344 186.503906 164.265625 183.148438 169.359375 C 183.128906 169.390625 183.105469 169.425781 183.082031 169.460938 C 182.878906 169.765625 182.675781 170.066406 182.46875 170.367188 C 182.210938 170.742188 181.949219 171.113281 181.683594 171.480469 C 181.550781 171.664062 181.417969 171.84375 181.285156 172.027344 C 181.152344 172.207031 181.015625 172.386719 180.878906 172.566406 C 177.097656 177.582031 172.78125 181.785156 167.90625 185.234375 C 163.738281 188.183594 159.15625 190.582031 154.113281 192.441406 C 154.035156 192.472656 153.957031 192.5 153.878906 192.527344 C 153.746094 192.574219 153.613281 192.625 153.480469 192.671875 C 153.269531 192.75 153.058594 192.824219 152.84375 192.898438 C 151.5625 193.339844 150.253906 193.75 148.914062 194.121094 C 148.90625 194.125 148.898438 194.121094 148.894531 194.121094 C 141.84375 196.003906 134.402344 196.957031 126.523438 196.957031 L 113.078125 196.957031 C 111.445312 196.957031 109.914062 197.578125 108.800781 198.691406 C 108.726562 198.769531 108.652344 198.84375 108.582031 198.925781 C 108.546875 198.964844 108.511719 199.003906 108.476562 199.042969 C 108.441406 199.085938 108.410156 199.125 108.375 199.167969 C 108.332031 199.222656 108.289062 199.277344 108.246094 199.335938 C 108.234375 199.347656 108.226562 199.363281 108.214844 199.378906 C 108.160156 199.449219 108.113281 199.523438 108.0625 199.597656 C 108.011719 199.671875 107.964844 199.746094 107.921875 199.820312 C 107.855469 199.929688 107.796875 200.039062 107.738281 200.148438 C 107.714844 200.195312 107.691406 200.242188 107.667969 200.292969 C 107.621094 200.386719 107.578125 200.484375 107.539062 200.582031 C 107.523438 200.617188 107.511719 200.648438 107.496094 200.683594 C 107.484375 200.714844 107.472656 200.75 107.457031 200.78125 C 107.445312 200.816406 107.433594 200.851562 107.421875 200.882812 C 107.410156 200.917969 107.398438 200.953125 107.386719 200.984375 C 107.371094 201.035156 107.351562 201.089844 107.335938 201.140625 C 107.332031 201.15625 107.328125 201.171875 107.320312 201.191406 C 107.316406 201.207031 107.3125 201.226562 107.308594 201.242188 C 107.300781 201.257812 107.296875 201.277344 107.292969 201.292969 C 107.277344 201.34375 107.265625 201.398438 107.253906 201.449219 L 106.941406 202.703125 L 94.992188 251.089844 L 77.183594 251.089844 L 100.425781 156.941406 L 106.699219 131.550781 Z M 252.382812 160.332031 L 298.019531 160.332031 L 271.527344 267.636719 L 104.484375 267.636719 L 118.746094 209.886719 L 127.464844 209.886719 C 129.257812 209.886719 131.035156 209.84375 132.796875 209.753906 C 132.957031 209.746094 133.113281 209.738281 133.273438 209.730469 C 133.390625 209.726562 133.507812 209.71875 133.625 209.710938 C 134.601562 209.65625 135.574219 209.585938 136.539062 209.503906 C 142.234375 209.015625 147.761719 208.058594 153.109375 206.632812 C 153.132812 206.628906 153.152344 206.621094 153.175781 206.617188 C 153.699219 206.46875 154.222656 206.320312 154.742188 206.164062 C 155.519531 205.929688 156.289062 205.683594 157.054688 205.429688 C 158.074219 205.089844 159.082031 204.730469 160.074219 204.351562 C 160.320312 204.257812 160.570312 204.160156 160.816406 204.0625 C 161.0625 203.96875 161.308594 203.871094 161.554688 203.769531 C 161.800781 203.671875 162.042969 203.570312 162.289062 203.46875 C 162.53125 203.367188 162.773438 203.265625 163.015625 203.160156 C 163.5 202.953125 163.980469 202.742188 164.457031 202.523438 C 164.695312 202.414062 164.933594 202.304688 165.171875 202.195312 C 165.644531 201.972656 166.117188 201.746094 166.585938 201.511719 C 166.820312 201.398438 167.050781 201.28125 167.28125 201.164062 C 167.515625 201.046875 167.746094 200.925781 167.976562 200.804688 C 168.207031 200.683594 168.4375 200.5625 168.664062 200.441406 C 168.894531 200.316406 169.121094 200.195312 169.351562 200.070312 C 170.03125 199.695312 170.707031 199.308594 171.371094 198.910156 C 172.925781 197.984375 174.4375 197.003906 175.910156 195.964844 C 176.085938 195.839844 176.257812 195.714844 176.433594 195.589844 C 176.46875 195.5625 176.503906 195.539062 176.535156 195.515625 C 176.613281 195.460938 176.6875 195.402344 176.761719 195.347656 C 176.894531 195.253906 177.027344 195.15625 177.160156 195.058594 C 178.191406 194.292969 179.203125 193.496094 180.1875 192.675781 C 180.1875 192.675781 180.1875 192.675781 180.191406 192.675781 C 180.78125 192.179688 181.367188 191.675781 181.945312 191.160156 C 182.136719 190.988281 182.328125 190.816406 182.519531 190.644531 C 182.519531 190.644531 182.519531 190.644531 182.519531 190.640625 C 182.898438 190.292969 183.277344 189.941406 183.652344 189.585938 C 183.839844 189.40625 184.023438 189.226562 184.207031 189.046875 C 184.207031 189.046875 184.210938 189.046875 184.210938 189.046875 C 184.394531 188.867188 184.578125 188.683594 184.761719 188.5 C 185.128906 188.136719 185.492188 187.765625 185.851562 187.390625 C 186.570312 186.640625 187.273438 185.875 187.960938 185.089844 C 187.960938 185.089844 187.960938 185.089844 187.964844 185.089844 C 188.136719 184.894531 188.308594 184.695312 188.476562 184.496094 C 189.5 183.308594 190.492188 182.078125 191.449219 180.808594 C 191.609375 180.597656 191.765625 180.386719 191.925781 180.171875 C 192.082031 179.957031 192.238281 179.742188 192.394531 179.527344 C 192.550781 179.3125 192.707031 179.09375 192.859375 178.875 C 193.015625 178.660156 193.167969 178.441406 193.320312 178.21875 C 193.433594 178.054688 193.546875 177.886719 193.660156 177.71875 C 197.148438 172.550781 199.78125 166.660156 201.917969 160.382812 C 214.222656 160.34375 233.847656 160.335938 252.382812 160.332031 Z M 252.382812 160.332031 " fill-opacity="1" fill-rule="nonzero"/></g></svg>